PathFileType	4	(X/Y/Z)	Patient4_TMGait_0pt5_01_right_28.trc.trc
DataRate	CameraRate	NumFrames	NumMarkers	Units	OrigDataRate	OrigDataStartFrame	OrigNumFrames
76.086956521739	76.086956521739	7	33	mm	76.086956521739	71	       141
Frame#	Time	L.ASIS			Sacral			L.Shoulder			Chest			R.Shoulder			Neck			R.ASIS			R.Thigh.Superior			R.Thigh.Lateral			R.Thigh.Inferior			R.Patella			L.Thigh.Superior			L.Thigh.Lateral			L.Thigh.Inferior			L.Patella			L.Shank.Superior			L.Shank.Lateral			L.Shank.Inferior			R.Shank.Superior			R.Shank.Lateral			R.Shank.Inferior			R.Heel			R.Midfoot.Superior			R.Midfoot.Lateral			R.Toe			L.Heel			L.Midfoot.Lateral			L.Midfoot.Superior			L.Toe			L.Elbow			L.Wrist			R.Elbow			R.Wrist			
		X1	Y1	Z1	X2	Y2	Z2	X3	Y3	Z3	X4	Y4	Z4	X5	Y5	Z5	X6	Y6	Z6	X7	Y7	Z7	X8	Y8	Z8	X9	Y9	Z9	X10	Y10	Z10	X11	Y11	Z11	X12	Y12	Z12	X13	Y13	Z13	X14	Y14	Z14	X15	Y15	Z15	X16	Y16	Z16	X17	Y17	Z17	X18	Y18	Z18	X19	Y19	Z19	X20	Y20	Z20	X21	Y21	Z21	X22	Y22	Z22	X23	Y23	Z23	X24	Y24	Z24	X25	Y25	Z25	X26	Y26	Z26	X27	Y27	Z27	X28	Y28	Z28	X29	Y29	Z29	X30	Y30	Z30	X31	Y31	Z31	X32	Y32	Z32	X33	Y33	Z33	

71	37.670000000000	869.090547048879	959.883641310762	344.826669950301	680.902185025075	1005.912878086512	533.065994398487	826.385830668491	1427.878238072560	326.905464918693	956.185358419028	1358.643670521810	467.483242644366	906.291973571410	1437.632685044040	652.981565951488	856.298788234384	1491.165139573297	473.597258054034	920.077178970636	932.964504031800	614.463148642868	927.468781173633	724.089423166681	577.847192481946	838.562848561829	624.193394328797	646.275768115237	892.728925829359	564.497291877560	556.232077438876	877.893007734690	476.258018005663	559.386385205815	947.581169555942	774.189914009182	370.765793793339	890.156327279204	647.021569268573	301.133843364512	991.911305195783	585.464519293100	360.974455595271	1013.390310719053	518.059415255196	359.949702561793	996.844406644665	445.695214478433	348.178938876128	928.529791013026	318.417255128423	294.711464453780	1011.732190882887	217.088907770326	351.066087957973	839.747334917552	391.142373261911	568.355288323637	762.150229597313	296.156549932097	635.154406112368	781.868847624100	199.155675623044	567.278702991875	625.613802167109	43.673818728431	547.283386458002	799.267570453821	95.888786885910	571.600235146719	712.661304538975	36.561361510231	617.390439973099	920.240978185903	41.671320055023	595.545524000044	922.119695972116	40.808418267945	386.744553697885	997.256904673955	44.198565577716	307.883670910058	1069.515822530193	118.634713823223	330.109177423882	1202.068341086213	86.018662522713	306.725619332923	725.986953250852	1081.543227289714	230.536927315263	771.427559313261	825.568996035903	198.446445013198	1020.808975917714	1111.880507820295	757.241034479323	1246.144499658667	1098.257370193232	642.240315317942	
72	37.683142857143	870.724400171102	958.528222695817	343.772025712296	682.032682243328	1004.914028757401	531.350541150489	826.135793114126	1426.792300045787	324.815963971512	956.065613182449	1358.164803235194	465.601086660450	905.573954279880	1437.032358254932	651.029161054437	855.723170889520	1490.349894550447	471.453033213917	921.037739831646	932.457871611966	613.561131400356	926.701253857482	722.927967316266	577.539768017176	836.335075666854	623.708212749006	645.660979249874	890.215633452201	563.354558672026	556.102992305042	874.333699086660	475.198725121733	558.976924581874	949.245610527447	772.444573411245	369.717288561521	889.801599130103	644.848552026133	301.739031022645	992.233797759958	583.427572056704	360.415483271969	1012.065218220015	514.877909531463	360.389752670231	994.503597802990	442.134000950027	348.991861238516	923.388361442912	316.221784984861	295.962655771817	1004.183202733307	213.251817311937	352.672081852183	835.568073166959	390.530260481915	568.053412532989	757.229553206068	296.239676704817	635.029754929547	776.149407689790	198.982882018376	567.203212537002	619.037525988649	43.950179959488	547.331137715386	792.759831572793	95.861007878100	571.654751949960	706.086828557526	36.632214234787	617.388825347344	913.654353722662	41.397064654421	595.589819653432	909.899603575880	40.140475136642	388.159958888873	985.182068853154	41.757030612574	309.272576535682	1059.774061973907	113.512107784575	332.249161617527	1191.449425304767	76.720376152998	308.639970044507	725.571415747707	1080.522077643558	228.911169548441	771.860402152752	824.637594225544	196.797881956746	1019.647201191672	1110.295897907493	753.748725483667	1243.710392450415	1097.546996548445	636.349220627876	
73	37.696285714286	872.498254287911	957.250690446966	342.628905992224	683.310456812459	1004.017093166429	529.518636184522	826.019146943884	1425.778690863636	322.587280336841	956.047340548974	1357.783380022601	463.622077046419	904.875062310068	1436.485864988654	648.979784709752	855.236100680017	1489.615178379671	469.165351119216	922.114037726180	932.017501579174	612.540647511050	926.127902641150	721.845817311645	577.230938510154	834.197490174796	623.350819049562	644.976648011319	887.858029479284	562.308927878895	555.967592138624	870.924973830653	474.214796030451	558.573249492565	950.798229560204	770.525340780405	368.738757898524	889.469673283148	642.778317090394	302.162330762486	992.343207183636	581.288922574829	360.028622843330	1010.642327222929	511.715289385546	360.882817161551	992.112897566624	438.693711426147	349.765508212710	918.435211349523	314.097299915621	297.019208190945	996.781138914791	209.581898916638	354.211933504625	831.533292080584	390.032123156844	567.762603534232	752.380587185345	296.490297487112	634.923910530968	770.518747745109	198.944728820476	567.169803534113	612.503622803382	44.451595158735	547.412615661688	786.339467412468	95.882084329694	571.764134274062	699.553783369502	36.813525408943	617.406293803696	907.086538693227	41.055959765224	595.642502610578	897.944228207508	39.478885106914	389.273841255164	973.476288977754	39.589032060374	310.461149133388	1050.172428127957	108.775911701462	334.408855374684	1181.079289956784	68.128014340901	310.716319592498	725.417109517903	1079.535063885368	227.113843978704	772.783917326475	823.775116820421	194.939768524900	1017.927173450629	1108.583559149176	750.418365944589	1240.805956963107	1095.774426022329	630.847329352943	
74	37.709428571429	874.300985715431	956.134901459905	341.384246866868	684.664522910955	1003.286272658797	527.601905040420	826.052776445829	1424.894131727877	320.249746330430	956.149056600801	1357.520642022735	461.554974760216	904.268249926461	1436.041770446725	646.842416770046	854.885984956490	1489.005809714673	466.758181057623	923.257075404696	931.662111148903	611.385292467338	925.748669837055	720.889508732809	576.866245472795	832.228332334513	623.136923411284	644.197702721970	885.736381974570	561.395855120816	555.773406925519	867.788740997581	473.313216248942	558.152590386480	952.152586410051	768.559334839270	367.851278656545	889.203797974405	640.947910873569	302.323065005357	992.229480112075	579.209355984406	359.808896928725	1009.192032457806	508.777263129234	361.356430015561	989.792795396344	435.573142024696	350.419583112676	913.922696945226	312.189542287295	297.791069120412	989.847100687963	206.303077523512	355.585942102288	827.726239782530	389.653754707940	567.459516192817	747.673976686179	296.938903958376	634.822274753255	765.026815105892	199.066025669777	567.173730725910	606.026422716343	45.250689210061	547.537458839395	780.032100261416	95.973178794102	571.931771977865	693.073718381988	37.145371264388	617.450622345974	900.542112761064	40.649532933525	595.702554930436	886.788880435577	38.891317900104	390.082391295725	962.620508350683	37.828588447523	311.407379800248	1041.087109995732	104.711623317905	336.433580979746	1171.358999967552	60.731282528945	312.740610616545	725.553501314199	1078.637663388935	225.150908837636	774.163777546413	823.031372486128	192.890450916746	1015.686287982333	1106.807905228171	747.278086016119	1237.473040286942	1092.927824622838	625.770556318096	
75	37.722571428571	876.021487449193	955.257844213710	340.016804358840	686.018363867203	1002.775925353047	525.625556322992	826.244463342863	1424.194852795946	317.841031918087	956.383364985074	1357.390743102799	459.411123212957	903.829919020186	1435.745351574481	644.629036733047	854.714315800879	1488.562577603122	464.265453379233	924.410960578377	931.412753987963	610.078386419366	925.547834708982	720.105825195680	576.384957560327	830.504122391499	623.076578328661	643.301243158416	883.931857731088	560.646776197600	555.470439442916	865.050724000750	472.493061807487	557.698520795306	953.262980566695	766.713513974607	367.054846629438	889.074101492563	639.480874605507	302.165458607722	991.938992732689	577.355023042810	359.718856574204	1007.797003216522	506.236112894794	361.741877776055	987.647875333929	432.920871843837	350.898602416289	910.015130472368	310.626199409759	298.209342428622	983.562598774973	203.572021414749	356.720674969103	824.229227661658	389.395083651563	567.124242283849	743.180423335496	297.609854695770	634.709461992158	759.722393055236	199.366900391429	567.210299658535	599.620068748381	46.415332418840	547.712627344484	773.862420810327	96.154033666130	572.158443331017	686.656984263043	37.665075409659	617.527991922890	894.025747364824	40.184871387556	595.768270038549	876.735784195885	38.431741640365	390.606211591768	952.866913261087	36.540275930466	312.095928219566	1032.723491369075	101.488705351200	338.190565685815	1162.500881787373	54.806120651333	314.523352047925	726.002162008320	1077.888310918560	223.028691465512	775.972394984325	822.461830590677	190.669380140156	1012.962708692649	1105.037110578497	744.356941771423	1233.738016449358	1088.999808317927	621.154543225087	
76	37.735714285714	877.566119392943	954.677930330449	338.497383424495	687.303892060063	1002.520597969490	523.604436138580	826.590471939284	1423.729078941254	315.403065076203	956.754073440269	1357.398196512047	457.204761940141	903.626978287353	1435.629899336601	642.355482955326	854.748641884642	1488.315995036531	461.729513825856	925.520713467884	931.289238218474	608.603817614041	925.499256850843	719.534980033094	575.730051173830	829.091075179444	623.172007284191	642.270254601115	882.518997104230	560.084191159768	555.019576437825	862.827212264457	471.744556826360	557.206815134416	954.124240952444	765.160200840457	366.325994838269	889.147518430597	638.462392498639	301.667798343367	991.541626954421	575.852194258447	359.691112066960	1006.517334238257	504.194266132450	361.987338459950	985.735057456068	430.812931568832	351.181176451519	906.764133190922	309.488409018105	298.244011142464	977.964330922311	201.461547662578	357.583547191481	821.115099419055	389.248901689731	566.744503250215	738.961812016269	298.517698951792	634.570984018442	754.647866895182	199.859515409839	567.276227761314	593.296959267466	47.999195998428	547.940832265094	767.852046680634	96.440334099731	572.442855431574	680.311051928596	38.401708637020	617.641345390265	887.541652178625	39.675377031090	595.837274769285	867.861497608500	38.132427124855	390.885314452994	944.254665266289	35.721459446917	312.539871835177	1025.126846059244	99.151753637456	339.594968650511	1154.541535295578	50.406803144266	315.936757008139	726.767745462143	1077.342228023415	220.754406115466	778.189312669723	822.122543857659	188.295397501842	1009.795392321857	1103.335034556554	741.682682411691	1229.612040950798	1083.987399420854	617.037463106789	
77	37.748857142857	878.873476007210	954.427029598863	336.792717990289	688.472287265684	1002.528407276518	521.540890166134	827.074570972737	1423.530119827176	312.977441457945	957.254064004557	1357.537997554617	454.952944002293	903.702388215087	1435.710053561397	640.041802780474	854.997001303008	1488.281665408258	459.196945160420	926.540358690081	931.305475971981	606.947300187760	925.574700456110	719.203715935908	574.857678876559	828.038702144542	623.415789658746	641.095664719571	881.559376823105	559.717301722845	554.398318520736	861.213169668420	471.049511226951	556.687239223163	954.765402270186	764.038292608970	365.616042700269	889.448841783508	637.919125445427	300.845815898522	991.093498493181	574.755715140461	359.635925890626	1005.366555199010	502.669372796817	362.064777287627	984.047405326651	429.248687855407	351.278322638268	904.108602460484	308.795545497716	297.915764740121	972.971226316373	199.962829850366	358.185567116124	818.440196763778	389.200155459068	566.317027245732	735.064632153608	299.665101682941	634.394070616250	749.835412028650	200.546016885432	567.370060448427	587.066735282619	50.034448865267	548.219440860550	762.017972068334	96.841432797463	572.782685284895	674.039478874191	39.371947925799	617.789193945606	881.093126736895	39.140627005159	595.906476654107	860.065838220592	38.002557692057	390.973138840908	936.661694424891	35.318082738775	312.776338448234	1018.221003895946	97.638231817969	340.620462639105	1147.384928683443	47.403085946546	316.928251801655	727.831554243142	1077.044318480624	218.336203272071	780.800080185659	822.063910976739	185.785350974122	1006.223943806668	1101.753806389588	739.278059690860	1225.092651485425	1077.892874881070	613.462526804527	
